<svg xmlns="http://www.w3.org/2000/svg" viewBox="0 0 443.8 197.4" role="img" aria-labelledby="title">
  <title>Vans logo</title>
  <path fill="#ffffff" d="M31.6 162.8h-6.3l-1.2-13.5h6.3l1.2 13.5zM412.2 162.8h6.3l1.2-13.5h-6.3l-1.2 13.5zM20.5 149.4h-6.3l1.2 13.5h6.3l-1.2-13.5zM422.2 162.8h6.3l1.2-13.5h-6.3l-1.2 13.5zM63.5 166.1c.2 4.7-3.5 8.6-8.2 8.8h-.4c-4.8 0-8.6-3.9-8.6-8.7V166c0-4.8 3.4-8.8 8.5-8.8 4.8 0 8.6 3.9 8.6 8.7v.2zm-26.7 0c0 9.5 7.7 17.1 18 17.1S73 175.5 73 166v-.1c0-9.5-7.7-17.1-18-17.1s-18.2 7.7-18.2 17.3zm42 16.4h9.3v-11.8H104v-7.6H88.1v-5.6h17.6v-8H78.8v33zm32.3 0h9.3v-11.8h15.9v-7.6h-15.9v-5.6H138v-8h-26.9v33zm53.1 0h9.3v-25h10.1v-8h-29.5v8h10.1v25zm25.5 0h9.3V170h12v12.5h9.3v-33H211v12.4h-12v-12.4h-9.3v33zm36.9 0h27.3v-7.8h-18.1v-5.2h16.1v-7.2h-16.1v-5h17.8v-7.8h-27v33zm52.8.3h8.1l6.7-19 6.8 19h8.1l11.2-33.3h-9.6l-5.9 19.1-6.5-19.2h-8l-6.5 19.2-5.9-19.1h-9.8l11.3 33.3zm51.9-13.3 3.8-9.4 3.7 9.4h-7.5zm-15 13h9.8l2.4-5.9h13l2.5 5.9h10l-14.3-33.3h-9l-14.4 33.3zm42 0h25.6v-8h-16.3v-25h-9.3v33zm30.8 0h25.6v-8h-16.3v-25h-9.3v33z"/>
  <path fill="#ffffff" d="M374.4 66.4h-18.1c-1.8-4.4-3.7-7.9-13.8-7.9-7 0-10 2.9-10 5.8 0 3.2 2.5 5.8 10.2 7.5l16.4 4.4c10.7 2.9 15.9 11.4 15.9 20.3 0 5-1.1 11-5.8 16-3.5 3.7-8.9 8.6-26.7 8.6-24.4 0-32.5-15.4-32.5-24.8h19c1.9 6.8 6.5 9.4 15.8 9.4 6.4 0 11.9-2.3 11.9-7.2 0-4.7-4-6.4-9.1-7.8l-12.9-3.5c-6.2-1.9-11.4-3.4-15.1-6.5-9.6-8.2-8.9-22.9 1.5-30.5 5.8-4.2 11.7-6.4 21.2-6.4 11.1 0 17.4 3.2 22.4 6.6 4.5 2.8 9.8 10.2 9.9 16m-305.1-52.2 37.8 106h22.5l34.6-87.7h215l1.6-18.3H147.7L119 86.9 93.2 14.2H69.3zm185.9 68.1 28.1 37.9h17.6V45.2h-20.2V86l-25.4-40.7h-19.4v74.9h19.4V82.3zm126.3 34c0-2.2-1.8-4-4-4s-4 1.8-4 4 1.8 4 4 4 4.1-1.8 4-4zm-.4 0c0 1.9-1.6 3.5-3.5 3.5s-3.5-1.6-3.5-3.5 1.6-3.5 3.5-3.5c1.9-.1 3.5 1.4 3.5 3.5zm-1.7-.9c0-.8-.7-1.4-1.4-1.4H376v4.2h.9v-1.4h.7l.9 1.4h1.1l-1-1.5c.5-.1.8-.7.8-1.3zm-.9.1c0 .3-.3.6-.6.6h-1v-1.2h.9c.4-.1.7.1.8.4-.1.1-.1.2-.1.2zm-230.3 4.7h21.6l4-11.7h28.5l4.1 11.7h21.2l-27.2-74.9h-22.9l-29.3 74.9zm31.6-25.3 8.4-24.9 8.2 24.9h-16.6z"/>
</svg>
